<?xml version="1.0" encoding="UTF-8" standalone="no"?>
<!-- Created with Inkscape (http://www.inkscape.org/) -->

<svg
   xmlns:dc="http://purl.org/dc/elements/1.1/"
   xmlns:cc="http://creativecommons.org/ns#"
   xmlns:rdf="http://www.w3.org/1999/02/22-rdf-syntax-ns#"
   xmlns:svg="http://www.w3.org/2000/svg"
   xmlns="http://www.w3.org/2000/svg"
   xmlns:sodipodi="http://sodipodi.sourceforge.net/DTD/sodipodi-0.dtd"
   xmlns:inkscape="http://www.inkscape.org/namespaces/inkscape"
   version="1.1"
   id="svg2"
   xml:space="preserve"
   width="800"
   height="533.33331"
   viewBox="0 0 800 533.33331"
   sodipodi:docname="afib_examples.svg"
   inkscape:version="0.92.3 (2405546, 2018-03-11)"><metadata
     id="metadata8"><rdf:RDF><cc:Work
         rdf:about=""><dc:format>image/svg+xml</dc:format><dc:type
           rdf:resource="http://purl.org/dc/dcmitype/StillImage" /><dc:title></dc:title></cc:Work></rdf:RDF></metadata><defs
     id="defs6"><clipPath
       clipPathUnits="userSpaceOnUse"
       id="clipPath38"><path
         d="M 36.256,59.856 H 303.872 V 365.744 H 36.256 Z"
         id="path36"
         inkscape:connector-curvature="0" /></clipPath><clipPath
       clipPathUnits="userSpaceOnUse"
       id="clipPath48"><path
         d="M 36.256,59.856 H 303.872 V 365.744 H 36.256 Z"
         id="path46"
         inkscape:connector-curvature="0" /></clipPath><clipPath
       clipPathUnits="userSpaceOnUse"
       id="clipPath58"><path
         d="M 36.256,59.856 H 303.872 V 365.744 H 36.256 Z"
         id="path56"
         inkscape:connector-curvature="0" /></clipPath><clipPath
       clipPathUnits="userSpaceOnUse"
       id="clipPath68"><path
         d="M 36.256,59.856 H 303.872 V 365.744 H 36.256 Z"
         id="path66"
         inkscape:connector-curvature="0" /></clipPath><clipPath
       clipPathUnits="userSpaceOnUse"
       id="clipPath78"><path
         d="M 36.256,59.856 H 303.872 V 365.744 H 36.256 Z"
         id="path76"
         inkscape:connector-curvature="0" /></clipPath><clipPath
       clipPathUnits="userSpaceOnUse"
       id="clipPath116"><path
         d="M 318.128,59.856 H 585.744 V 365.744 H 318.128 Z"
         id="path114"
         inkscape:connector-curvature="0" /></clipPath><clipPath
       clipPathUnits="userSpaceOnUse"
       id="clipPath126"><path
         d="M 318.128,59.856 H 585.744 V 365.744 H 318.128 Z"
         id="path124"
         inkscape:connector-curvature="0" /></clipPath><clipPath
       clipPathUnits="userSpaceOnUse"
       id="clipPath136"><path
         d="M 318.128,59.856 H 585.744 V 365.744 H 318.128 Z"
         id="path134"
         inkscape:connector-curvature="0" /></clipPath><clipPath
       clipPathUnits="userSpaceOnUse"
       id="clipPath146"><path
         d="M 318.128,59.856 H 585.744 V 365.744 H 318.128 Z"
         id="path144"
         inkscape:connector-curvature="0" /></clipPath><clipPath
       clipPathUnits="userSpaceOnUse"
       id="clipPath156"><path
         d="M 318.128,59.856 H 585.744 V 365.744 H 318.128 Z"
         id="path154"
         inkscape:connector-curvature="0" /></clipPath></defs><sodipodi:namedview
     pagecolor="#ffffff"
     bordercolor="#666666"
     borderopacity="1"
     objecttolerance="10"
     gridtolerance="10"
     guidetolerance="10"
     inkscape:pageopacity="0"
     inkscape:pageshadow="2"
     inkscape:window-width="1240"
     inkscape:window-height="772"
     id="namedview4"
     showgrid="false"
     inkscape:zoom="0.43375"
     inkscape:cx="400"
     inkscape:cy="266.66666"
     inkscape:window-x="0"
     inkscape:window-y="0"
     inkscape:window-maximized="0"
     inkscape:current-layer="g10" /><g
     id="g10"
     inkscape:groupmode="layer"
     inkscape:label="fig6_examples"
     transform="matrix(1.3333333,0,0,-1.3333333,0,533.33333)"><path
       d="M 0,0 H 600 V 400 H 0 Z"
       style="fill:#ffffff;fill-opacity:1;fill-rule:nonzero;stroke:none"
       id="path12"
       inkscape:connector-curvature="0" /><path
       d="M 36.256,59.856 H 303.872 V 365.744 H 36.256 Z"
       style="fill:#ffffff;fill-opacity:1;fill-rule:nonzero;stroke:none"
       id="path14"
       inkscape:connector-curvature="0" /><text
       transform="matrix(1,0,0,-1,43.139114,40.66225)"
       style="font-variant:normal;font-weight:normal;font-size:19.00799942px;font-family:ArialMT;-inkscape-font-specification:ArialMT;writing-mode:lr-tb;fill:#3f3d46;fill-opacity:1;fill-rule:nonzero;stroke:none"
       id="text18"><tspan
         x="0"
         y="0"
         id="tspan16">0</tspan></text>
<text
       transform="matrix(1,0,0,-1,288.88383,40.66225)"
       style="font-variant:normal;font-weight:normal;font-size:19.00799942px;font-family:ArialMT;-inkscape-font-specification:ArialMT;writing-mode:lr-tb;fill:#3f3d46;fill-opacity:1;fill-rule:nonzero;stroke:none"
       id="text22"><tspan
         x="0"
         y="0"
         id="tspan20">5</tspan></text>
<text
       transform="matrix(1,0,0,-1,139.44681,19.28725)"
       style="font-variant:normal;font-weight:normal;font-size:19.00799942px;font-family:ArialMT;-inkscape-font-specification:ArialMT;writing-mode:lr-tb;fill:#3f3d46;fill-opacity:1;fill-rule:nonzero;stroke:none"
       id="text26"><tspan
         x="0 5.284224 9.5039997 25.337664 35.906113 41.190334 46.47456 55.978561"
         y="0"
         sodipodi:role="line"
         id="tspan24">time [s]</tspan></text>
<text
       transform="matrix(0,1,1,0,28.47475,168.97187)"
       style="font-variant:normal;font-weight:normal;font-size:19.00799942px;font-family:ArialMT;-inkscape-font-specification:ArialMT;writing-mode:lr-tb;fill:#3f3d46;fill-opacity:1;fill-rule:nonzero;stroke:none"
       id="text30"><tspan
         x="0 12.678336 25.356672 40.144897 45.429119 50.713345 61.281792 66.566017 77.13446 82.418686"
         y="0"
         sodipodi:role="line"
         id="tspan28">PPG [a.u.]</tspan></text>
<g
       id="g32"><g
         id="g34"
         clip-path="url(#clipPath38)"><path
           d="m 48.420364,90.037854 2.457447,-7.934377 2.457447,0.979685 2.457447,2.605318 2.457447,-5.748924 2.457448,3.283561 2.457447,7.492981 2.457447,-0.96892 2.457447,-0.559821 2.457447,8.817171 2.457448,3.617302 2.457447,9.44159 2.457447,-3.66037 2.457447,4.54316 2.457447,-3.06825 2.457448,4.89843 2.457447,-0.49522 2.457447,-11.92849 2.457447,-10.53969 2.457447,-2.077795 2.457448,-14.695285 2.457442,-0.27991 2.45745,4.736942 2.45745,1.151938 2.45745,2.08856 2.45744,-4.963023 2.45745,-0.915091 2.45745,4.252482 2.45744,4.209418 2.45745,-2.250047 2.45745,-2.131623 2.45745,11.16411 2.45744,0.828964 2.45745,1.496443 2.45745,-0.516757 2.45745,2.648381 2.45744,1.507209 2.45745,15.351994 2.45745,-6.23338 2.45744,-5.79199 2.45745,-4.198652 2.45745,-12.735914 2.45745,4.23095 2.45744,-6.750141 2.45745,2.379236 2.45745,-0.904325 2.45745,0.699776 2.45744,-2.34694 2.45745,5.770456 2.45745,-5.813519 2.45744,1.894777 2.45745,2.820633 2.45745,4.801536 2.45744,0.850497 2.45745,4.489328 2.45745,-2.185452 2.45745,8.515734 2.45744,-1.21654 2.45745,2.57302 2.45745,2.08856 2.45745,-5.08144 2.45744,-2.045501 2.45745,-8.268116 2.45745,-4.963023 2.45744,3.95104 2.45745,-6.825502 2.45745,5.006086 2.45745,-1.970137 2.45744,1.582569 2.45745,-3.391219 2.45745,4.629283 2.45744,2.034732 2.45745,-3.380454 2.45745,6.09343 2.45745,1.873245 2.45744,8.914067 2.45745,-1.86248 2.45745,-4.274017 2.45744,2.390002 2.45745,5.781225 2.45745,0.20455 2.45745,-5.7274 2.45744,-1.216529 2.45745,-4.467797 2.45745,-1.690227 2.45745,-8.18199 2.45744,5.006086 2.45745,-1.022748 2.45745,-3.714193 2.45744,8.246584 2.45745,-9.882982 2.45745,-2.971354 2.45745,4.360139 2.45744,-0.452163 2.45745,1.647164 2.45745,-2.562255 2.45744,5.619736 2.45745,-0.710542 2.45745,3.18667 2.45745,-0.656712"
           style="fill:none;stroke:#83a83b;stroke-width:2;stroke-linecap:square;stroke-linejoin:round;stroke-miterlimit:10;stroke-dasharray:none;stroke-opacity:1"
           id="path40"
           inkscape:connector-curvature="0" /></g></g><g
       id="g42"><g
         id="g44"
         clip-path="url(#clipPath48)"><path
           d="m 48.420364,150.59534 2.457447,2.21775 2.457447,5.33983 2.457447,-8.28965 2.457447,-4.8123 2.457448,-10.07677 2.457447,-0.0646 2.457447,11.36866 2.457447,-4.67235 2.457447,2.4223 2.457448,-0.69977 2.457447,8.4296 2.457447,-0.76437 2.457447,4.93072 2.457447,-11.6055 2.457448,12.05767 2.457447,-2.26082 2.457447,3.92951 2.457447,3.14361 2.457447,-2.4223 2.457448,1.42108 2.457442,0.23685 2.45745,-0.4414 2.45745,-6.7932 2.45745,-6.481 2.45744,-1.50721 2.45745,-6.8255 2.45745,-0.49523 2.45744,4.73694 2.45745,-1.38878 2.45745,-3.76802 2.45745,8.3973 2.45744,-0.80743 2.45745,-1.86248 2.45745,12.38064 2.45745,-9.36622 2.45744,9.58154 2.45745,6.58865 2.45745,-0.67824 2.45744,0.92586 2.45745,5.78122 2.45745,-4.82307 2.45745,-3.96181 2.45744,-9.79685 2.45745,-3.59577 2.45745,0.41986 2.45745,2.41154 2.45744,-6.59942 2.45745,-1.00122 2.45745,5.64127 2.45744,-3.81109 2.45745,2.84217 2.45745,3.63883 2.45744,-3.25126 2.45745,5.13527 2.45745,7.21307 2.45745,0.69978 2.45744,-5.53361 2.45745,2.56225 2.45745,8.45114 2.45745,-1.37802 2.45744,2.65914 2.45745,-0.76437 2.45745,-9.61383 2.45744,-8.19276 2.45745,-6.02884 2.45745,7.30997 2.45745,-7.94515 2.45744,-4.83383 2.45745,0.68901 2.45745,3.28356 2.45744,-0.58135 2.45745,8.0851 2.45745,3.39122 2.45745,-3.32663 2.45744,15.07209 2.45745,-4.12329 2.45745,6.50253 2.45744,0.10765 2.45745,-3.08977 2.45745,1.24883 2.45745,-0.58136 2.45744,-1.46414 2.45745,-7.13771 2.45745,-11.36866 2.45745,-4.01564 2.45744,2.00244 2.45745,-0.39833 2.45745,0.62441 2.45744,1.06581 2.45745,-5.00608 2.45745,1.36725 2.45745,3.56347 2.45744,1.20577 2.45745,3.75725 2.45745,12.4883 2.45744,-1.76558 2.45745,8.18199 2.45745,-2.85293 2.45745,2.05626"
           style="fill:none;stroke:#83a83b;stroke-width:2;stroke-linecap:square;stroke-linejoin:round;stroke-miterlimit:10;stroke-dasharray:none;stroke-opacity:1"
           id="path50"
           inkscape:connector-curvature="0" /></g></g><g
       id="g52"><g
         id="g54"
         clip-path="url(#clipPath58)"><path
           d="m 48.420364,202.24954 2.457447,2.22851 2.457447,-4.14482 2.457447,5.12451 2.457447,-2.14239 2.457448,9.12938 2.457447,1.00122 2.457447,4.11252 2.457447,11.41173 2.457447,-1.44262 2.457448,5.12451 2.457447,0.68901 2.457447,-5.45825 2.457447,-12.16533 2.457447,-4.70464 2.457448,-9.00019 2.457447,5.05992 2.457447,-3.81109 2.457447,-7.00852 2.457447,-2.00243 2.457448,-6.99776 2.457442,5.61974 2.45745,2.30387 2.45745,-2.14239 2.45745,1.46415 2.45744,2.7668 2.45745,-3.36968 2.45745,4.09099 2.45744,8.31118 2.45745,0.0215 2.45745,8.63415 2.45745,4.13406 2.45744,4.98456 2.45745,-0.13996 2.45745,-2.40077 2.45745,-11.39019 2.45744,6.05037 2.45745,-16.31015 2.45745,1.89477 2.45744,0.9151 2.45745,-4.33861 2.45745,4.82307 2.45745,-6.29798 2.45744,-0.74284 2.45745,7.66523 2.45745,9.37699 2.45745,3.52041 2.45744,7.79442 2.45745,-1.75482 2.45745,9.83992 2.45744,-2.17469 2.45745,3.80032 2.45745,-2.66991 2.45744,-2.7991 2.45745,-7.34226 2.45745,-4.30631 2.45745,-7.85902 2.45744,-5.44748 2.45745,7.01929 2.45745,-6.19033 2.45745,-1.5718 2.45744,-5.99654 2.45745,10.42127 2.45745,-0.97968 2.45744,0.94739 2.45745,10.35667 2.45745,2.90676 2.45745,-0.96892 2.45744,7.01929 2.45745,8.27888 2.45745,-6.31951 2.45744,-3.72496 2.45745,-7.2023 2.45745,-8.4296 2.45745,-11.64857 2.45744,-3.86492 2.45745,-1.81941 2.45745,2.70221 2.45744,-4.37091 2.45745,-2.32541 2.45745,2.88523 2.45745,-0.33374 2.45744,4.08023 2.45745,-2.41153 2.45745,13.89861 2.45745,9.23704 2.45744,-3.60654 2.45745,6.93316 2.45745,2.27158 2.45744,7.94515 2.45745,-8.0528 2.45745,-6.72861 2.45745,-9.26934 2.45744,-0.23684 2.45745,-3.97258 2.45745,-6.11496 2.45744,-0.25838 2.45745,-2.22851 2.45745,-5.26447 2.45745,15.95488"
           style="fill:none;stroke:#83a83b;stroke-width:2;stroke-linecap:square;stroke-linejoin:round;stroke-miterlimit:10;stroke-dasharray:none;stroke-opacity:1"
           id="path60"
           inkscape:connector-curvature="0" /></g></g><g
       id="g62"><g
         id="g64"
         clip-path="url(#clipPath68)"><path
           d="m 48.420364,285.49052 2.457447,-0.91509 2.457447,-2.91752 2.457447,-4.52163 2.457447,7.91284 2.457448,3.28357 2.457447,-1.41032 2.457447,-2.52996 2.457447,3.78955 2.457447,-15.64267 2.457448,-24.35218 2.457447,-6.43794 2.457447,3.98334 2.457447,-5.75969 2.457447,-0.15072 2.457448,-0.52753 2.457447,2.76681 2.457447,7.39609 2.457447,1.77635 2.457447,-2.88523 2.457448,-0.43063 2.457442,10.44281 2.45745,2.44383 2.45745,4.10176 2.45745,11.71316 2.45744,1.48568 2.45745,4.69388 2.45745,6.45946 2.45744,0.99045 2.45745,1.64717 2.45745,-12.72515 2.45745,-6.66402 2.45744,-6.7609 2.45745,-8.20352 2.45745,-2.33618 2.45745,-3.52041 2.45744,-0.66747 2.45745,2.89599 2.45745,9.14014 2.45744,-5.55514 2.45745,7.84825 2.45745,-2.07779 2.45745,-3.01442 2.45744,5.85658 2.45745,7.15924 2.45745,10.14137 2.45745,-6.20109 2.45744,2.41153 2.45745,-8.03127 2.45745,-7.74059 2.45744,-9.03249 2.45745,-2.34694 2.45745,-3.45581 2.45744,9.2478 2.45745,-9.49541 2.45745,1.05504 2.45745,3.72496 2.45744,5.42595 2.45745,-2.37923 2.45745,9.72149 2.45745,1.41032 2.45744,-3.96181 2.45745,2.35771 2.45745,0.30144 2.45744,7.01929 2.45745,-4.40321 2.45745,7.68677 2.45745,-7.7083 2.45744,-1.6041 2.45745,-9.37699 2.45745,2.19622 2.45744,1.89478 2.45745,1.17347 2.45745,-4.68312 2.45745,3.40199 2.45744,-0.95816 2.45745,-1.99166 2.45745,11.04568 2.45744,-2.0455 2.45745,5.00609 2.45745,-16.06254 2.45745,11.87465 2.45744,-3.25126 2.45745,2.64838 2.45745,3.2082 2.45745,-1.05504 2.45744,0.23684 2.45745,0.11843 2.45745,-6.59942 2.45744,4.15558 2.45745,-0.689 2.45745,-1.86248 h 2.45745 l 2.45744,-5.05992 2.45745,-2.97135 2.45745,5.24293 2.45744,-5.40442 2.45745,1.33496 2.45745,-2.0455 2.45745,3.9941"
           style="fill:none;stroke:#83a83b;stroke-width:2;stroke-linecap:square;stroke-linejoin:round;stroke-miterlimit:10;stroke-dasharray:none;stroke-opacity:1"
           id="path70"
           inkscape:connector-curvature="0" /></g></g><g
       id="g72"><g
         id="g74"
         clip-path="url(#clipPath78)"><path
           d="m 48.420364,294.39382 2.457447,4.55392 2.457447,3.05748 2.457447,7.33149 2.457447,2.73451 2.457448,12.24069 2.457447,6.49176 2.457447,13.85556 2.457447,5.95347 2.457447,-9.15091 2.457448,7.14848 2.457447,0.68901 2.457447,-7.05159 2.457447,-7.70829 2.457447,-9.40929 2.457448,-4.4032 2.457447,0.55982 2.457447,-8.78488 2.457447,-0.16148 2.457447,-4.51086 2.457448,6.53482 2.457442,-11.37942 2.45745,-4.15559 2.45745,4.88766 2.45745,-5.78122 2.45744,9.20474 2.45745,3.43428 2.45745,-0.80743 2.45744,-2.22852 2.45745,4.93073 2.45745,2.98212 2.45745,6.95469 2.45744,5.26446 2.45745,0.11843 2.45745,5.88888 2.45745,1.46414 h 2.45744 l 2.45745,-8.59109 2.45745,6.49176 2.45744,-4.83383 2.45745,8.04204 2.45745,-15.20128 2.45745,1.45338 2.45744,1.38878 2.45745,-10.64735 2.45745,10.27055 2.45745,-10.48586 2.45744,12.0146 2.45745,-5.33982 2.45745,0.71054 2.45744,-1.27036 2.45745,7.49298 2.45745,-1.79789 2.45744,6.1365 2.45745,5.08144 2.45745,-6.93316 2.45745,4.8769 2.45744,-3.3051 2.45745,-2.29311 2.45745,-0.46292 2.45745,-4.36014 2.45744,2.7345 2.45745,-5.69509 2.45745,-1.74406 2.45744,-2.4223 2.45745,6.66402 2.45745,1.00122 2.45745,-1.94861 2.45744,4.56469 2.45745,-2.4223 2.45745,3.97257 2.45744,-5.61973 2.45745,8.61262 2.45745,-6.86857 2.45745,9.14015 2.45744,2.75604 2.45745,-4.13406 2.45745,1.00121 2.45744,-2.22851 2.45745,-4.47857 2.45745,3.73573 2.45745,-3.2728 2.45744,5.93195 2.45745,2.25004 2.45745,10.07677 2.45745,2.27158 2.45744,4.38167 2.45745,-3.40199 2.45745,2.84217 2.45744,-0.11842 2.45745,-0.21532 2.45745,-9.99064 2.45745,-26.97904 2.45744,-71.30173 2.45745,30.5748 2.45745,-32.92174 2.45744,-18.06497 2.45745,-0.83973 2.45745,35.7962 2.45745,49.14577"
           style="fill:none;stroke:#83a83b;stroke-width:2;stroke-linecap:square;stroke-linejoin:round;stroke-miterlimit:10;stroke-dasharray:none;stroke-opacity:1"
           id="path80"
           inkscape:connector-curvature="0" /></g></g><g
       id="g82"><path
         d="M 36.256,59.856 V 365.744"
         style="fill:none;stroke:#6a737d;stroke-width:1.12;stroke-linecap:square;stroke-linejoin:miter;stroke-miterlimit:10;stroke-dasharray:none;stroke-opacity:1"
         id="path84"
         inkscape:connector-curvature="0" /><path
         d="M 303.872,59.856 V 365.744"
         style="fill:none;stroke:#6a737d;stroke-width:1.12;stroke-linecap:square;stroke-linejoin:miter;stroke-miterlimit:10;stroke-dasharray:none;stroke-opacity:1"
         id="path86"
         inkscape:connector-curvature="0" /><path
         d="M 36.256,59.856 H 303.872"
         style="fill:none;stroke:#6a737d;stroke-width:1.12;stroke-linecap:square;stroke-linejoin:miter;stroke-miterlimit:10;stroke-dasharray:none;stroke-opacity:1"
         id="path88"
         inkscape:connector-curvature="0" /><path
         d="M 36.256,365.744 H 303.872"
         style="fill:none;stroke:#6a737d;stroke-width:1.12;stroke-linecap:square;stroke-linejoin:miter;stroke-miterlimit:10;stroke-dasharray:none;stroke-opacity:1"
         id="path90"
         inkscape:connector-curvature="0" /><text
         transform="matrix(1,0,0,-1,150.00931,371.744)"
         style="font-variant:normal;font-weight:normal;font-size:19.00799942px;font-family:ArialMT;-inkscape-font-specification:ArialMT;writing-mode:lr-tb;fill:#83a83b;fill-opacity:1;fill-rule:nonzero;stroke:none"
         id="text94"><tspan
           x="0 13.723776 26.402111"
           y="0"
           sodipodi:role="line"
           id="tspan92">NSR</tspan></text>
<path
         d="M 318.128,59.856 H 585.744 V 365.744 H 318.128 Z"
         style="fill:#ffffff;fill-opacity:1;fill-rule:nonzero;stroke:none"
         id="path96"
         inkscape:connector-curvature="0" /><text
         transform="matrix(1,0,0,-1,325.01111,40.66225)"
         style="font-variant:normal;font-weight:normal;font-size:19.00799942px;font-family:ArialMT;-inkscape-font-specification:ArialMT;writing-mode:lr-tb;fill:#3f3d46;fill-opacity:1;fill-rule:nonzero;stroke:none"
         id="text100"><tspan
           x="0"
           y="0"
           id="tspan98">0</tspan></text>
<text
         transform="matrix(1,0,0,-1,570.75583,40.66225)"
         style="font-variant:normal;font-weight:normal;font-size:19.00799942px;font-family:ArialMT;-inkscape-font-specification:ArialMT;writing-mode:lr-tb;fill:#3f3d46;fill-opacity:1;fill-rule:nonzero;stroke:none"
         id="text104"><tspan
           x="0"
           y="0"
           id="tspan102">5</tspan></text>
<text
         transform="matrix(1,0,0,-1,421.31881,19.28725)"
         style="font-variant:normal;font-weight:normal;font-size:19.00799942px;font-family:ArialMT;-inkscape-font-specification:ArialMT;writing-mode:lr-tb;fill:#3f3d46;fill-opacity:1;fill-rule:nonzero;stroke:none"
         id="text108"><tspan
           x="0 5.284224 9.5039997 25.337664 35.906113 41.190334 46.47456 55.978561"
           y="0"
           sodipodi:role="line"
           id="tspan106">time [s]</tspan></text>
</g><g
       id="g110"><g
         id="g112"
         clip-path="url(#clipPath116)"><path
           d="m 330.29236,86.2483 2.45745,1.539506 2.45745,-7.21307 2.45745,7.051584 2.45744,1.173469 2.45745,0.473695 2.45745,1.108874 2.45744,10.884202 2.45745,-0.61365 2.45745,3.68189 2.45745,-2.15315 2.45744,9.6569 2.45745,-6.4487 2.45745,5.51208 2.45744,-0.15072 2.45745,3.08978 2.45745,-6.29798 2.45745,5.44748 2.45744,2.18545 2.45745,0.17225 2.45745,-8.52649 2.45744,-12.046905 2.45745,-2.325407 2.45745,-7.460683 2.45745,-7.148476 2.45744,3.326625 2.45745,-3.218967 2.45745,1.151938 2.45745,3.208201 2.45744,-1.873245 2.45745,-1.464145 2.45745,-2.067029 2.45744,10.948794 2.45745,3.638832 2.45745,-9.269333 2.45745,-2.583786 2.45744,2.239281 2.45745,-2.49766 2.45745,1.496443 2.45744,5.60897 2.45745,4.887662 2.45745,14.25389 2.45745,-1.701 2.45744,-2.65914 2.45745,4.62928 2.45745,-5.72739 2.45744,0.15072 2.45745,-6.254916 2.45745,1.561038 2.45745,-1.787119 2.45744,0.290676 2.45745,-7.54681 2.45745,-0.645946 2.45744,-1.485677 2.45745,5.027617 2.45745,1.141173 2.45745,6.911628 2.45744,-3.509643 2.45745,1.636398 2.45745,-0.258379 2.45745,-5.673564 2.45744,-2.885228 2.45745,7.568341 2.45745,-8.472666 2.45744,-4.392437 2.45745,1.690227 2.45745,-5.318293 2.45745,7.439151 2.45744,-0.613649 2.45745,-2.648381 2.45745,2.508426 2.45744,-2.62685 2.45745,-3.175904 2.45745,3.143607 2.45745,10.27055 2.45744,-0.322973 2.45745,-1.797884 2.45745,5.55514 2.45745,-1.647164 2.45744,5.88888 2.45745,-3.197436 2.45745,8.332707 2.45744,-1.52874 2.45745,-1.43184 2.45745,-0.69978 2.45745,-1.787119 2.45744,-0.441396 2.45745,-3.886446 2.45745,-0.150721 2.45744,-0.193783 2.45745,4.413968 2.45745,1.927077 2.45745,-4.640053 2.45744,-1.830182 2.45745,3.67113 2.45745,0.979686 2.45744,-3.18667 2.45745,8.343479 2.45745,-2.12086 2.45745,-5.458249"
           style="fill:none;stroke:#c44e52;stroke-width:2;stroke-linecap:square;stroke-linejoin:round;stroke-miterlimit:10;stroke-dasharray:none;stroke-opacity:1"
           id="path118"
           inkscape:connector-curvature="0" /></g></g><g
       id="g120"><g
         id="g122"
         clip-path="url(#clipPath126)"><path
           d="m 330.29236,150.87525 2.45745,-3.585 2.45745,0.38757 2.45745,8.79564 2.45744,-7.78366 2.45745,-8.74181 2.45745,-5.91041 2.45744,-5.42595 2.45745,3.90798 2.45745,-11.96078 2.45745,8.4296 2.45744,-6.0719 2.45745,4.42474 2.45745,-0.64595 2.45744,-7.66523 2.45745,0.0754 2.45745,13.97398 2.45745,6.14725 2.45744,11.40096 2.45745,3.84338 2.45745,6.481 2.45744,8.67722 2.45745,-4.20942 2.45745,4.52163 2.45745,-2.87447 2.45744,-2.04549 2.45745,0.27991 2.45745,4.36013 2.45745,-9.2478 2.45744,-6.51329 2.45745,1.38878 2.45745,-6.51329 2.45744,-5.72739 2.45745,-2.94983 2.45745,-5.14604 2.45745,4.44627 2.45744,1.91631 2.45745,2.96058 2.45745,2.23929 2.45744,-3.73573 2.45745,6.50253 2.45745,6.73938 2.45745,4.90919 2.45744,-3.08978 2.45745,-0.19378 2.45745,6.19032 2.45744,7.66523 2.45745,-4.12329 2.45745,-6.53483 2.45745,-5.54437 2.45744,1.21653 2.45745,-5.82428 2.45745,-3.90798 2.45744,7.39609 2.45745,-8.55879 2.45745,-5.10298 2.45745,-0.17225 2.45744,3.10054 2.45745,-5.21064 2.45745,2.39001 2.45745,-5.286 2.45744,5.58744 2.45745,-6.86857 2.45745,7.21307 2.45744,3.88645 2.45745,-3.73573 2.45745,3.15438 2.45745,4.48932 2.45744,5.55514 2.45745,-4.62928 2.45745,0.92586 2.45744,2.72374 2.45745,3.25126 2.45745,1.67946 2.45745,-1.18423 2.45744,-1.07658 2.45745,-2.92829 2.45745,3.82185 2.45745,3.03595 2.45744,5.2537 2.45745,-5.73816 2.45745,1.33496 2.45744,-4.93073 2.45745,-1.88401 2.45745,1.2596 2.45745,-3.98334 2.45744,-2.65915 2.45745,1.17347 2.45745,2.34694 2.45744,-4.23095 2.45745,-10.42127 2.45745,1.42108 2.45745,-0.8182 2.45744,2.63762 2.45745,2.05626 2.45745,-5.26446 2.45744,7.44991 2.45745,-5.53361 2.45745,3.02519 2.45745,6.90086"
           style="fill:none;stroke:#c44e52;stroke-width:2;stroke-linecap:square;stroke-linejoin:round;stroke-miterlimit:10;stroke-dasharray:none;stroke-opacity:1"
           id="path128"
           inkscape:connector-curvature="0" /></g></g><g
       id="g130"><g
         id="g132"
         clip-path="url(#clipPath136)"><path
           d="m 330.29236,198.6753 2.45745,5.53361 2.45745,-0.31221 2.45745,-4.44626 2.45744,6.77167 2.45745,-2.98212 2.45745,-1.38878 2.45744,5.21063 2.45745,-1.52874 2.45745,-0.41986 2.45745,7.72982 2.45744,-13.87708 2.45745,17.03146 2.45745,3.10054 2.45744,-8.88177 2.45745,-2.21775 2.45745,-5.88888 2.45745,2.32541 2.45744,5.82429 2.45745,-5.80276 2.45745,-0.59211 2.45744,8.13892 2.45745,-1.74405 2.45745,4.20941 2.45745,-4.95225 2.45744,5.50131 2.45745,-4.66158 2.45745,-2.02397 2.45745,-2.93905 2.45744,-4.71541 2.45745,-0.46293 2.45745,-3.25127 2.45744,3.78956 2.45745,5.37212 2.45745,2.87446 2.45745,-2.99289 2.45744,1.88402 2.45745,2.48689 2.45745,-7.54681 2.45744,7.03005 2.45745,-7.09464 2.45745,-1.20577 2.45745,4.67235 2.45744,-4.98456 2.45745,5.03838 2.45745,-6.42716 2.45744,3.97257 2.45745,2.29311 2.45745,7.94514 2.45745,-1.88401 2.45744,1.75482 2.45745,-2.7668 2.45745,10.23825 2.45744,-9.75379 2.45745,-6.76091 2.45745,0.74284 2.45745,-5.02762 2.45744,1.39955 2.45745,6.0396 2.45745,2.88523 2.45745,-6.29798 2.45744,-2.40077 2.45745,1.86248 2.45745,3.88645 2.45744,-2.84217 2.45745,0.64595 2.45745,-4.01564 2.45745,4.0587 2.45744,-2.41153 2.45745,0.97968 2.45745,-0.59211 2.45744,2.71297 2.45745,-1.91631 2.45745,-1.45338 2.45745,-3.5204 2.45744,-0.52753 2.45745,3.43428 2.45745,0.15073 2.45745,-5.58744 2.45744,7.97744 2.45745,4.65081 2.45745,0.8828 2.45744,0.88279 2.45745,-4.44627 2.45745,4.33861 2.45745,3.18667 2.45744,4.03717 2.45745,-7.86978 2.45745,8.14969 2.45744,-5.95348 2.45745,3.60654 2.45745,-7.37456 2.45745,0.94739 2.45744,-2.70221 2.45745,-5.71663 2.45745,4.42474 2.45744,2.62685 2.45745,-11.16411 2.45745,9.47388 2.45745,-2.33617"
           style="fill:none;stroke:#c44e52;stroke-width:2;stroke-linecap:square;stroke-linejoin:round;stroke-miterlimit:10;stroke-dasharray:none;stroke-opacity:1"
           id="path138"
           inkscape:connector-curvature="0" /></g></g><g
       id="g140"><g
         id="g142"
         clip-path="url(#clipPath146)"><path
           d="m 330.29236,266.86573 2.45745,-4.26325 2.45745,0.67824 2.45745,-1.10887 2.45744,6.64248 2.45745,-7.14847 2.45745,3.10054 2.45744,1.11964 2.45745,4.99532 2.45745,-6.16879 2.45745,-2.06703 2.45744,3.53118 2.45745,-3.11131 2.45745,3.2082 2.45744,3.05748 2.45745,4.48933 2.45745,-5.55514 2.45745,-2.85293 2.45744,0.0861 2.45745,4.5001 2.45745,-7.62217 2.45744,13.66177 2.45745,-3.45582 2.45745,0.0754 2.45745,-5.55515 2.45744,-3.80031 2.45745,2.26081 2.45745,-2.4223 2.45745,4.54316 2.45744,-2.26082 2.45745,-3.13284 2.45745,5.43672 2.45744,-0.8505 2.45745,0.79667 2.45745,-0.86126 2.45745,4.85536 2.45744,1.10888 2.45745,-6.59942 2.45745,3.19743 2.45744,-1.90554 2.45745,-3.9618 2.45745,3.1759 2.45745,0.27991 2.45744,-5.54438 2.45745,8.67722 2.45745,-2.98212 2.45744,-0.35527 2.45745,-1.73329 2.45745,0.79667 2.45745,-4.06947 2.45744,4.62929 2.45745,4.66158 2.45745,-7.12694 2.45744,3.34815 2.45745,0.89356 2.45745,-3.74649 2.45745,5.31829 2.45744,4.81231 2.45745,-1.33496 2.45745,-8.82794 2.45745,-1.49644 2.45744,1.6364 2.45745,2.22851 2.45745,0.97969 2.45744,-0.0969 2.45745,-0.10766 2.45745,-10.51816 2.45745,7.28843 2.45744,3.1759 2.45745,6.21186 2.45745,-7.55758 2.45744,2.55149 2.45745,-4.48933 2.45745,4.98455 2.45745,-8.53726 2.45744,7.65447 2.45745,-2.64838 2.45745,1.21653 2.45745,-3.5527 2.45744,6.23338 2.45745,-8.20352 2.45745,-6.98699 2.45744,6.91163 2.45745,-1.03352 2.45745,-3.74649 2.45745,-2.28234 2.45744,6.93316 2.45745,-8.26812 2.45745,0.4414 2.45744,2.87446 2.45745,3.56347 2.45745,-8.17122 2.45745,-1.1627 2.45744,-0.29068 2.45745,2.62685 2.45745,8.4619 2.45744,5.6305 2.45745,15.19051 2.45745,-1.37802 2.45745,2.05626"
           style="fill:none;stroke:#c44e52;stroke-width:2;stroke-linecap:square;stroke-linejoin:round;stroke-miterlimit:10;stroke-dasharray:none;stroke-opacity:1"
           id="path148"
           inkscape:connector-curvature="0" /></g></g><g
       id="g150"><g
         id="g152"
         clip-path="url(#clipPath156)"><path
           d="m 330.29236,322.79394 2.45745,8.61262 2.45745,-7.25614 2.45745,6.64249 2.45744,-9.3447 2.45745,5.30753 2.45745,-4.29554 2.45744,-0.29068 2.45745,5.58744 2.45745,-9.12938 2.45745,6.45947 2.45744,2.15315 2.45745,-2.70221 2.45745,-2.85293 2.45744,2.91753 2.45745,2.0132 2.45745,-3.98334 2.45745,3.34815 2.45744,-3.72495 2.45745,1.9809 2.45745,-3.47735 2.45744,4.45703 2.45745,2.59456 2.45745,-3.05748 2.45745,-2.08856 2.45744,7.83748 2.45745,-10.78731 2.45745,1.53951 2.45745,8.94636 2.45744,-10.45357 2.45745,4.29555 2.45745,0.7536 2.45744,7.63293 2.45745,-6.06113 2.45745,-2.66991 2.45745,1.08734 2.45744,2.64838 2.45745,-4.29554 2.45745,8.77411 2.45744,-1.88401 2.45745,-6.45947 2.45745,6.91163 2.45745,0.32297 2.45744,-2.13162 2.45745,4.67235 2.45745,-1.00122 2.45744,-12.16533 2.45745,-0.50599 2.45745,-2.87446 2.45745,-0.39834 2.45744,12.45601 2.45745,-9.60308 2.45745,5.83506 2.45744,-4.41397 2.45745,1.79788 2.45745,-1.04428 2.45745,1.46415 2.45744,1.6364 2.45745,5.44748 2.45745,-4.01564 2.45745,0.53829 2.45744,6.01807 2.45745,-3.48811 2.45745,-7.54681 2.45744,2.75604 2.45745,-0.25838 2.45745,-0.41986 2.45745,-1.92708 2.45744,4.73694 2.45745,-5.29676 2.45745,0.8505 2.45744,3.2405 2.45745,-4.61852 2.45745,5.44748 2.45745,0.46293 2.45744,-4.89843 2.45745,-0.72131 2.45745,8.48344 2.45745,-6.82551 2.45744,9.79686 2.45745,-3.54194 2.45745,2.27158 2.45744,-5.02762 2.45745,-0.17225 2.45745,7.52528 2.45745,-2.49766 2.45744,-1.6364 2.45745,-5.89965 2.45745,2.05627 2.45744,1.5395 2.45745,-4.72617 2.45745,0.39833 2.45745,-1.47491 2.45744,7.01928 2.45745,-8.94636 2.45745,6.57789 2.45744,-2.57302 2.45745,-2.47613 2.45745,7.84826 2.45745,-3.77879"
           style="fill:none;stroke:#c44e52;stroke-width:2;stroke-linecap:square;stroke-linejoin:round;stroke-miterlimit:10;stroke-dasharray:none;stroke-opacity:1"
           id="path158"
           inkscape:connector-curvature="0" /></g></g><g
       id="g160"><path
         d="M 318.128,59.856 V 365.744"
         style="fill:none;stroke:#6a737d;stroke-width:1.12;stroke-linecap:square;stroke-linejoin:miter;stroke-miterlimit:10;stroke-dasharray:none;stroke-opacity:1"
         id="path162"
         inkscape:connector-curvature="0" /><path
         d="M 585.744,59.856 V 365.744"
         style="fill:none;stroke:#6a737d;stroke-width:1.12;stroke-linecap:square;stroke-linejoin:miter;stroke-miterlimit:10;stroke-dasharray:none;stroke-opacity:1"
         id="path164"
         inkscape:connector-curvature="0" /><path
         d="M 318.128,59.856 H 585.744"
         style="fill:none;stroke:#6a737d;stroke-width:1.12;stroke-linecap:square;stroke-linejoin:miter;stroke-miterlimit:10;stroke-dasharray:none;stroke-opacity:1"
         id="path166"
         inkscape:connector-curvature="0" /><path
         d="M 318.128,365.744 H 585.744"
         style="fill:none;stroke:#6a737d;stroke-width:1.12;stroke-linecap:square;stroke-linejoin:miter;stroke-miterlimit:10;stroke-dasharray:none;stroke-opacity:1"
         id="path168"
         inkscape:connector-curvature="0" /><text
         transform="matrix(1,0,0,-1,432.40475,371.744)"
         style="font-variant:normal;font-weight:normal;font-size:19.00799942px;font-family:ArialMT;-inkscape-font-specification:ArialMT;writing-mode:lr-tb;fill:#c44e52;fill-opacity:1;fill-rule:nonzero;stroke:none"
         id="text172"><tspan
           x="0 12.678336 24.292225 28.511999"
           y="0"
           sodipodi:role="line"
           id="tspan170">AFib</tspan></text>
</g></g></svg>