<?xml version="1.0" encoding="UTF-8" standalone="no"?>
<!DOCTYPE svg PUBLIC "-//W3C//DTD SVG 1.1//EN"
 "http://www.w3.org/Graphics/SVG/1.1/DTD/svg11.dtd">
<!-- Generated by graphviz version 2.40.1 (20161225.0304)
 -->
<!-- Title: G Pages: 1 -->
<svg width="269pt" height="210pt"
 viewBox="0.00 0.00 269.00 210.00" xmlns="http://www.w3.org/2000/svg" xmlns:xlink="http://www.w3.org/1999/xlink">
<g id="graph0" class="graph" transform="scale(1 1) rotate(0) translate(4 206)">
<title>G</title>
<polygon fill="#ffffff" stroke="transparent" points="-4,4 -4,-206 265,-206 265,4 -4,4"/>
<g id="clust1" class="cluster">
<title>cluster_0</title>
<polygon fill="none" stroke="#000000" points="8,-8 8,-194 253,-194 253,-8 8,-8"/>
<text text-anchor="middle" x="214.5" y="-15.8" font-family="Times,serif" font-size="14.00" fill="#000000">consumer i</text>
</g>
<g id="clust2" class="cluster">
<title>cluster_1</title>
<polygon fill="none" stroke="#000000" points="16,-39 16,-186 245,-186 245,-39 16,-39"/>
<text text-anchor="middle" x="209.5" y="-46.8" font-family="Times,serif" font-size="14.00" fill="#000000">timestep t</text>
</g>
<!-- yt_2 -->
<g id="node1" class="node">
<title>yt_2</title>
<ellipse fill="none" stroke="#000000" cx="55" cy="-88" rx="30.5947" ry="18"/>
<text text-anchor="middle" x="55" y="-84.3" font-family="Times,serif" font-size="14.00" fill="#000000">y(t&#45;2)</text>
</g>
<!-- yt -->
<g id="node2" class="node">
<title>yt</title>
<ellipse fill="none" stroke="#000000" cx="210" cy="-88" rx="27" ry="18"/>
<text text-anchor="middle" x="210" y="-84.3" font-family="Times,serif" font-size="14.00" fill="#000000">y(t)</text>
</g>
<!-- yt_2&#45;&gt;yt -->
<g id="edge1" class="edge">
<title>yt_2&#45;&gt;yt</title>
<path fill="none" stroke="#000000" d="M70.3509,-103.5856C79.1015,-111.3415 90.7462,-119.9154 103,-124 129.1415,-132.7138 138.9978,-133.1211 165,-124 173.2313,-121.1126 181.0754,-116.0163 187.8414,-110.5505"/>
<polygon fill="#000000" stroke="#000000" points="190.584,-112.7996 195.783,-103.5681 185.9619,-107.5426 190.584,-112.7996"/>
</g>
<!-- yt_1 -->
<g id="node3" class="node">
<title>yt_1</title>
<ellipse fill="none" stroke="#000000" cx="134" cy="-88" rx="30.5947" ry="18"/>
<text text-anchor="middle" x="134" y="-84.3" font-family="Times,serif" font-size="14.00" fill="#000000">y(t&#45;1)</text>
</g>
<!-- yt_2&#45;&gt;yt_1 -->
<g id="edge2" class="edge">
<title>yt_2&#45;&gt;yt_1</title>
<path fill="none" stroke="#000000" d="M85.5508,-88C88.1451,-88 90.7395,-88 93.3339,-88"/>
<polygon fill="#000000" stroke="#000000" points="93.3408,-91.5001 103.3407,-88 93.3407,-84.5001 93.3408,-91.5001"/>
</g>
<!-- yt_1&#45;&gt;yt -->
<g id="edge3" class="edge">
<title>yt_1&#45;&gt;yt</title>
<path fill="none" stroke="#000000" d="M164.5781,-88C167.2174,-88 169.8566,-88 172.4959,-88"/>
<polygon fill="#000000" stroke="#000000" points="172.6759,-91.5001 182.6759,-88 172.6759,-84.5001 172.6759,-91.5001"/>
</g>
<!-- Xt -->
<g id="node4" class="node">
<title>Xt</title>
<ellipse fill="none" stroke="#000000" cx="210" cy="-160" rx="27" ry="18"/>
<text text-anchor="middle" x="210" y="-156.3" font-family="Times,serif" font-size="14.00" fill="#000000">X(t)</text>
</g>
<!-- Xt&#45;&gt;yt -->
<g id="edge4" class="edge">
<title>Xt&#45;&gt;yt</title>
<path fill="none" stroke="#000000" d="M210,-141.8314C210,-134.131 210,-124.9743 210,-116.4166"/>
<polygon fill="#000000" stroke="#000000" points="213.5001,-116.4132 210,-106.4133 206.5001,-116.4133 213.5001,-116.4132"/>
</g>
</g>
</svg>
