<?xml version="1.0" encoding="UTF-8" standalone="no"?>
<!DOCTYPE svg PUBLIC "-//W3C//DTD SVG 1.1//EN"
 "http://www.w3.org/Graphics/SVG/1.1/DTD/svg11.dtd">
<!-- Generated by graphviz version 2.40.1 (20161225.0304)
 -->
<!-- Title: G Pages: 1 -->
<svg width="348pt" height="210pt"
 viewBox="0.00 0.00 348.00 210.00" xmlns="http://www.w3.org/2000/svg" xmlns:xlink="http://www.w3.org/1999/xlink">
<g id="graph0" class="graph" transform="scale(1 1) rotate(0) translate(4 206)">
<title>G</title>
<polygon fill="#ffffff" stroke="transparent" points="-4,4 -4,-206 344,-206 344,4 -4,4"/>
<g id="clust1" class="cluster">
<title>cluster_0</title>
<polygon fill="none" stroke="#000000" points="8,-8 8,-194 332,-194 332,-8 8,-8"/>
<text text-anchor="middle" x="293.5" y="-15.8" font-family="Times,serif" font-size="14.00" fill="#000000">consumer i</text>
</g>
<g id="clust2" class="cluster">
<title>cluster_1</title>
<polygon fill="none" stroke="#000000" points="16,-39 16,-186 324,-186 324,-39 16,-39"/>
<text text-anchor="middle" x="288.5" y="-46.8" font-family="Times,serif" font-size="14.00" fill="#000000">timestep t</text>
</g>
<!-- Et -->
<g id="node1" class="node">
<title>Et</title>
<ellipse fill="none" stroke="#000000" cx="173" cy="-160" rx="27" ry="18"/>
<text text-anchor="middle" x="173" y="-156.3" font-family="Times,serif" font-size="14.00" fill="#000000">E(t)</text>
</g>
<!-- yt -->
<g id="node6" class="node">
<title>yt</title>
<ellipse fill="none" stroke="#000000" cx="289" cy="-88" rx="27" ry="18"/>
<text text-anchor="middle" x="289" y="-84.3" font-family="Times,serif" font-size="14.00" fill="#000000">y(t)</text>
</g>
<!-- Et&#45;&gt;yt -->
<g id="edge7" class="edge">
<title>Et&#45;&gt;yt</title>
<path fill="none" stroke="#000000" d="M192.9411,-147.6228C211.5323,-136.0834 239.4639,-118.7465 260.4229,-105.7375"/>
<polygon fill="#000000" stroke="#000000" points="262.2803,-108.7041 268.9309,-100.4567 258.5887,-102.7566 262.2803,-108.7041"/>
</g>
<!-- Xt -->
<g id="node2" class="node">
<title>Xt</title>
<ellipse fill="none" stroke="#000000" cx="289" cy="-160" rx="27" ry="18"/>
<text text-anchor="middle" x="289" y="-156.3" font-family="Times,serif" font-size="14.00" fill="#000000">X(t)</text>
</g>
<!-- Xt&#45;&gt;yt -->
<g id="edge8" class="edge">
<title>Xt&#45;&gt;yt</title>
<path fill="none" stroke="#000000" d="M289,-141.8314C289,-134.131 289,-124.9743 289,-116.4166"/>
<polygon fill="#000000" stroke="#000000" points="292.5001,-116.4132 289,-106.4133 285.5001,-116.4133 292.5001,-116.4132"/>
</g>
<!-- yt_3 -->
<g id="node3" class="node">
<title>yt_3</title>
<ellipse fill="none" stroke="#000000" cx="55" cy="-88" rx="30.5947" ry="18"/>
<text text-anchor="middle" x="55" y="-84.3" font-family="Times,serif" font-size="14.00" fill="#000000">y(t&#45;3)</text>
</g>
<!-- yt_3&#45;&gt;Et -->
<g id="edge4" class="edge">
<title>yt_3&#45;&gt;Et</title>
<path fill="none" stroke="#000000" d="M76.3134,-101.0048C95.2917,-112.5848 123.2177,-129.6243 144.1838,-142.4173"/>
<polygon fill="#000000" stroke="#000000" points="142.6235,-145.5652 152.9829,-147.7862 146.2695,-139.5897 142.6235,-145.5652"/>
</g>
<!-- yt_2 -->
<g id="node4" class="node">
<title>yt_2</title>
<ellipse fill="none" stroke="#000000" cx="134" cy="-88" rx="30.5947" ry="18"/>
<text text-anchor="middle" x="134" y="-84.3" font-family="Times,serif" font-size="14.00" fill="#000000">y(t&#45;2)</text>
</g>
<!-- yt_3&#45;&gt;yt_2 -->
<!-- yt_2&#45;&gt;Et -->
<g id="edge5" class="edge">
<title>yt_2&#45;&gt;Et</title>
<path fill="none" stroke="#000000" d="M143.447,-105.4407C148.0732,-113.9813 153.7385,-124.4402 158.8667,-133.9077"/>
<polygon fill="#000000" stroke="#000000" points="155.9171,-135.8111 163.7575,-142.937 162.0722,-132.4771 155.9171,-135.8111"/>
</g>
<!-- yt_1 -->
<g id="node5" class="node">
<title>yt_1</title>
<ellipse fill="none" stroke="#000000" cx="213" cy="-88" rx="30.5947" ry="18"/>
<text text-anchor="middle" x="213" y="-84.3" font-family="Times,serif" font-size="14.00" fill="#000000">y(t&#45;1)</text>
</g>
<!-- yt_2&#45;&gt;yt_1 -->
<!-- yt_1&#45;&gt;Et -->
<g id="edge6" class="edge">
<title>yt_1&#45;&gt;Et</title>
<path fill="none" stroke="#000000" d="M203.3107,-105.4407C198.5659,-113.9813 192.7554,-124.4402 187.4957,-133.9077"/>
<polygon fill="#000000" stroke="#000000" points="184.2764,-132.4957 182.4794,-142.937 190.3955,-135.8952 184.2764,-132.4957"/>
</g>
<!-- yt_1&#45;&gt;yt -->
</g>
</svg>
