<?xml version="1.0" encoding="UTF-8" standalone="no"?>
<!DOCTYPE svg PUBLIC "-//W3C//DTD SVG 1.1//EN"
 "http://www.w3.org/Graphics/SVG/1.1/DTD/svg11.dtd">
<!-- Generated by graphviz version 2.40.1 (20161225.0304)
 -->
<!-- Title: G Pages: 1 -->
<svg width="348pt" height="274pt"
 viewBox="0.00 0.00 348.00 274.00" xmlns="http://www.w3.org/2000/svg" xmlns:xlink="http://www.w3.org/1999/xlink">
<g id="graph0" class="graph" transform="scale(1 1) rotate(0) translate(4 270)">
<title>G</title>
<polygon fill="#ffffff" stroke="transparent" points="-4,4 -4,-270 344,-270 344,4 -4,4"/>
<g id="clust1" class="cluster">
<title>cluster_0</title>
<polygon fill="none" stroke="#000000" points="8,-8 8,-258 332,-258 332,-8 8,-8"/>
<text text-anchor="middle" x="293.5" y="-15.8" font-family="Times,serif" font-size="14.00" fill="#000000">consumer i</text>
</g>
<g id="clust2" class="cluster">
<title>cluster_1</title>
<polygon fill="none" stroke="#000000" points="16,-39 16,-186 324,-186 324,-39 16,-39"/>
<text text-anchor="middle" x="288.5" y="-46.8" font-family="Times,serif" font-size="14.00" fill="#000000">timestep t</text>
</g>
<!-- Li -->
<g id="node1" class="node">
<title>Li</title>
<ellipse fill="none" stroke="#000000" cx="289" cy="-232" rx="27" ry="18"/>
<text text-anchor="middle" x="289" y="-228.3" font-family="Times,serif" font-size="14.00" fill="#000000">L[i]</text>
</g>
<!-- yt -->
<g id="node2" class="node">
<title>yt</title>
<ellipse fill="none" stroke="#000000" cx="289" cy="-160" rx="27" ry="18"/>
<text text-anchor="middle" x="289" y="-156.3" font-family="Times,serif" font-size="14.00" fill="#000000">y(t)</text>
</g>
<!-- Li&#45;&gt;yt -->
<g id="edge1" class="edge">
<title>Li&#45;&gt;yt</title>
<path fill="none" stroke="#000000" d="M289,-213.8314C289,-206.131 289,-196.9743 289,-188.4166"/>
<polygon fill="#000000" stroke="#000000" points="292.5001,-188.4132 289,-178.4133 285.5001,-188.4133 292.5001,-188.4132"/>
</g>
<!-- Et -->
<g id="node3" class="node">
<title>Et</title>
<ellipse fill="none" stroke="#000000" cx="173" cy="-88" rx="27" ry="18"/>
<text text-anchor="middle" x="173" y="-84.3" font-family="Times,serif" font-size="14.00" fill="#000000">E(t)</text>
</g>
<!-- Et&#45;&gt;yt -->
<g id="edge8" class="edge">
<title>Et&#45;&gt;yt</title>
<path fill="none" stroke="#000000" d="M193.0691,-100.4567C211.6198,-111.9709 239.3907,-129.208 260.2863,-142.1777"/>
<polygon fill="#000000" stroke="#000000" points="258.7167,-145.3228 269.0589,-147.6228 262.4083,-139.3753 258.7167,-145.3228"/>
</g>
<!-- Xt -->
<g id="node4" class="node">
<title>Xt</title>
<ellipse fill="none" stroke="#000000" cx="289" cy="-88" rx="27" ry="18"/>
<text text-anchor="middle" x="289" y="-84.3" font-family="Times,serif" font-size="14.00" fill="#000000">X(t)</text>
</g>
<!-- Xt&#45;&gt;yt -->
<g id="edge9" class="edge">
<title>Xt&#45;&gt;yt</title>
<path fill="none" stroke="#000000" d="M289,-106.4133C289,-114.0593 289,-123.1084 289,-131.5726"/>
<polygon fill="#000000" stroke="#000000" points="285.5001,-131.8313 289,-141.8314 292.5001,-131.8314 285.5001,-131.8313"/>
</g>
<!-- yt_3 -->
<g id="node5" class="node">
<title>yt_3</title>
<ellipse fill="none" stroke="#000000" cx="55" cy="-160" rx="30.5947" ry="18"/>
<text text-anchor="middle" x="55" y="-156.3" font-family="Times,serif" font-size="14.00" fill="#000000">y(t&#45;3)</text>
</g>
<!-- yt_3&#45;&gt;Et -->
<g id="edge5" class="edge">
<title>yt_3&#45;&gt;Et</title>
<path fill="none" stroke="#000000" d="M76.3689,-146.9613C95.3449,-135.3828 123.2342,-118.3656 144.1794,-105.5854"/>
<polygon fill="#000000" stroke="#000000" points="146.257,-108.4179 152.9704,-100.2215 142.6109,-102.4424 146.257,-108.4179"/>
</g>
<!-- yt_2 -->
<g id="node6" class="node">
<title>yt_2</title>
<ellipse fill="none" stroke="#000000" cx="134" cy="-160" rx="30.5947" ry="18"/>
<text text-anchor="middle" x="134" y="-156.3" font-family="Times,serif" font-size="14.00" fill="#000000">y(t&#45;2)</text>
</g>
<!-- yt_3&#45;&gt;yt_2 -->
<!-- yt_2&#45;&gt;Et -->
<g id="edge6" class="edge">
<title>yt_2&#45;&gt;Et</title>
<path fill="none" stroke="#000000" d="M143.4408,-142.5708C148.0396,-134.0807 153.6664,-123.6929 158.7718,-114.2674"/>
<polygon fill="#000000" stroke="#000000" points="161.9608,-115.7286 163.6461,-105.2687 155.8057,-112.3946 161.9608,-115.7286"/>
</g>
<!-- yt_1 -->
<g id="node7" class="node">
<title>yt_1</title>
<ellipse fill="none" stroke="#000000" cx="213" cy="-160" rx="30.5947" ry="18"/>
<text text-anchor="middle" x="213" y="-156.3" font-family="Times,serif" font-size="14.00" fill="#000000">y(t&#45;1)</text>
</g>
<!-- yt_2&#45;&gt;yt_1 -->
<!-- yt_1&#45;&gt;yt -->
<!-- yt_1&#45;&gt;Et -->
<g id="edge7" class="edge">
<title>yt_1&#45;&gt;Et</title>
<path fill="none" stroke="#000000" d="M203.3171,-142.5708C198.6004,-134.0807 192.8294,-123.6929 187.593,-114.2674"/>
<polygon fill="#000000" stroke="#000000" points="190.5097,-112.3105 182.5937,-105.2687 184.3906,-115.71 190.5097,-112.3105"/>
</g>
</g>
</svg>
