<?xml version="1.0" encoding="UTF-8" standalone="no"?>
<!DOCTYPE svg PUBLIC "-//W3C//DTD SVG 1.1//EN"
 "http://www.w3.org/Graphics/SVG/1.1/DTD/svg11.dtd">
<!-- Generated by graphviz version 2.40.1 (20161225.0304)
 -->
<!-- Title: G Pages: 1 -->
<svg width="111pt" height="210pt"
 viewBox="0.00 0.00 111.00 210.00" xmlns="http://www.w3.org/2000/svg" xmlns:xlink="http://www.w3.org/1999/xlink">
<g id="graph0" class="graph" transform="scale(1 1) rotate(0) translate(4 206)">
<title>G</title>
<polygon fill="#ffffff" stroke="transparent" points="-4,4 -4,-206 107,-206 107,4 -4,4"/>
<g id="clust1" class="cluster">
<title>cluster_0</title>
<polygon fill="none" stroke="#000000" points="8,-8 8,-194 95,-194 95,-8 8,-8"/>
<text text-anchor="middle" x="56.5" y="-15.8" font-family="Times,serif" font-size="14.00" fill="#000000">consumer i</text>
</g>
<g id="clust2" class="cluster">
<title>cluster_1</title>
<polygon fill="none" stroke="#000000" points="16,-39 16,-186 87,-186 87,-39 16,-39"/>
<text text-anchor="middle" x="51.5" y="-46.8" font-family="Times,serif" font-size="14.00" fill="#000000">timestep t</text>
</g>
<!-- Xt -->
<g id="node1" class="node">
<title>Xt</title>
<ellipse fill="none" stroke="#000000" cx="51" cy="-160" rx="27" ry="18"/>
<text text-anchor="middle" x="51" y="-156.3" font-family="Times,serif" font-size="14.00" fill="#000000">X(t)</text>
</g>
<!-- yt -->
<g id="node2" class="node">
<title>yt</title>
<ellipse fill="none" stroke="#000000" cx="51" cy="-88" rx="27" ry="18"/>
<text text-anchor="middle" x="51" y="-84.3" font-family="Times,serif" font-size="14.00" fill="#000000">y(t)</text>
</g>
<!-- Xt&#45;&gt;yt -->
<g id="edge1" class="edge">
<title>Xt&#45;&gt;yt</title>
<path fill="none" stroke="#000000" d="M51,-141.8314C51,-134.131 51,-124.9743 51,-116.4166"/>
<polygon fill="#000000" stroke="#000000" points="54.5001,-116.4132 51,-106.4133 47.5001,-116.4133 54.5001,-116.4132"/>
</g>
</g>
</svg>
