<?xml version="1.0" encoding="UTF-8" standalone="no"?>
<!DOCTYPE svg PUBLIC "-//W3C//DTD SVG 1.1//EN"
 "http://www.w3.org/Graphics/SVG/1.1/DTD/svg11.dtd">
<!-- Generated by graphviz version 2.40.1 (20161225.0304)
 -->
<!-- Title: G Pages: 1 -->
<svg width="150pt" height="171pt"
 viewBox="0.00 0.00 150.00 171.00" xmlns="http://www.w3.org/2000/svg" xmlns:xlink="http://www.w3.org/1999/xlink">
<g id="graph0" class="graph" transform="scale(1 1) rotate(0) translate(4 167)">
<title>G</title>
<polygon fill="#ffffff" stroke="transparent" points="-4,4 -4,-167 146,-167 146,4 -4,4"/>
<g id="clust1" class="cluster">
<title>cluster_0</title>
<polygon fill="none" stroke="#000000" points="64,-8 64,-155 134,-155 134,-8 64,-8"/>
<text text-anchor="middle" x="124" y="-15.8" font-family="Times,serif" font-size="14.00" fill="#000000">t</text>
</g>
<!-- l_i -->
<g id="node1" class="node">
<title>l_i</title>
<ellipse fill="none" stroke="#000000" cx="27" cy="-129" rx="27" ry="18"/>
<text text-anchor="middle" x="27" y="-125.3" font-family="Times,serif" font-size="14.00" fill="#000000">L[i]</text>
</g>
<!-- yt -->
<g id="node2" class="node">
<title>yt</title>
<ellipse fill="none" stroke="#000000" cx="99" cy="-57" rx="27" ry="18"/>
<text text-anchor="middle" x="99" y="-53.3" font-family="Times,serif" font-size="14.00" fill="#000000">y(t)</text>
</g>
<!-- l_i&#45;&gt;yt -->
<g id="edge1" class="edge">
<title>l_i&#45;&gt;yt</title>
<path fill="none" stroke="#000000" d="M42.2693,-113.7307C52.197,-103.803 65.3153,-90.6847 76.4363,-79.5637"/>
<polygon fill="#000000" stroke="#000000" points="79.1564,-81.7933 83.7527,-72.2473 74.2067,-76.8436 79.1564,-81.7933"/>
</g>
<!-- Xt -->
<g id="node3" class="node">
<title>Xt</title>
<ellipse fill="none" stroke="#000000" cx="99" cy="-129" rx="27" ry="18"/>
<text text-anchor="middle" x="99" y="-125.3" font-family="Times,serif" font-size="14.00" fill="#000000">X(t)</text>
</g>
<!-- Xt&#45;&gt;yt -->
<g id="edge2" class="edge">
<title>Xt&#45;&gt;yt</title>
<path fill="none" stroke="#000000" d="M99,-110.8314C99,-103.131 99,-93.9743 99,-85.4166"/>
<polygon fill="#000000" stroke="#000000" points="102.5001,-85.4132 99,-75.4133 95.5001,-85.4133 102.5001,-85.4132"/>
</g>
</g>
</svg>
