<?xml version="1.0" encoding="UTF-8" standalone="no"?>
<!DOCTYPE svg PUBLIC "-//W3C//DTD SVG 1.1//EN"
 "http://www.w3.org/Graphics/SVG/1.1/DTD/svg11.dtd">
<!-- Generated by graphviz version 2.40.1 (20161225.0304)
 -->
<!-- Title: G Pages: 1 -->
<svg width="174pt" height="210pt"
 viewBox="0.00 0.00 174.00 210.00" xmlns="http://www.w3.org/2000/svg" xmlns:xlink="http://www.w3.org/1999/xlink">
<g id="graph0" class="graph" transform="scale(1 1) rotate(0) translate(4 206)">
<title>G</title>
<polygon fill="#ffffff" stroke="transparent" points="-4,4 -4,-206 170,-206 170,4 -4,4"/>
<g id="clust1" class="cluster">
<title>cluster_0</title>
<polygon fill="none" stroke="#000000" points="8,-8 8,-194 158,-194 158,-8 8,-8"/>
<text text-anchor="middle" x="119.5" y="-15.8" font-family="Times,serif" font-size="14.00" fill="#000000">consumer i</text>
</g>
<g id="clust2" class="cluster">
<title>cluster_1</title>
<polygon fill="none" stroke="#000000" points="79,-39 79,-186 150,-186 150,-39 79,-39"/>
<text text-anchor="middle" x="114.5" y="-46.8" font-family="Times,serif" font-size="14.00" fill="#000000">timestep t</text>
</g>
<!-- l_i -->
<g id="node1" class="node">
<title>l_i</title>
<ellipse fill="none" stroke="#000000" cx="43" cy="-160" rx="27" ry="18"/>
<text text-anchor="middle" x="43" y="-156.3" font-family="Times,serif" font-size="14.00" fill="#000000">L[i]</text>
</g>
<!-- yt -->
<g id="node2" class="node">
<title>yt</title>
<ellipse fill="none" stroke="#000000" cx="114" cy="-88" rx="27" ry="18"/>
<text text-anchor="middle" x="114" y="-84.3" font-family="Times,serif" font-size="14.00" fill="#000000">y(t)</text>
</g>
<!-- l_i&#45;&gt;yt -->
<g id="edge1" class="edge">
<title>l_i&#45;&gt;yt</title>
<path fill="none" stroke="#000000" d="M58.0573,-144.7307C67.847,-134.803 80.7831,-121.6847 91.7497,-110.5637"/>
<polygon fill="#000000" stroke="#000000" points="94.4351,-112.8252 98.9644,-103.2473 89.4508,-107.9102 94.4351,-112.8252"/>
</g>
<!-- Xt -->
<g id="node3" class="node">
<title>Xt</title>
<ellipse fill="none" stroke="#000000" cx="115" cy="-160" rx="27" ry="18"/>
<text text-anchor="middle" x="115" y="-156.3" font-family="Times,serif" font-size="14.00" fill="#000000">X(t)</text>
</g>
<!-- Xt&#45;&gt;yt -->
<g id="edge2" class="edge">
<title>Xt&#45;&gt;yt</title>
<path fill="none" stroke="#000000" d="M114.7477,-141.8314C114.6407,-134.131 114.5135,-124.9743 114.3947,-116.4166"/>
<polygon fill="#000000" stroke="#000000" points="117.8944,-116.3637 114.2557,-106.4133 110.8951,-116.4609 117.8944,-116.3637"/>
</g>
</g>
</svg>
